<svg width="640" height="160" viewBox="0 0 640 160" fill="none" xmlns="http://www.w3.org/2000/svg">
  <rect x="4" y="4" width="632" height="152" stroke="#F4F1E8" stroke-width="8"/>
  <rect x="12" y="112" width="616" height="36" fill="#F4F1E8"/>
  <path d="M66 109V54.62C66 49.96 65.84 46.52 65.52 44.3C65.2 42.02 64.48 40.49 63.36 39.71C62.3 38.93 60.47 38.54 57.87 38.54C55.15 38.54 53.21 38.99 52.05 39.89C50.89 40.73 50.13 42.38 49.77 44.84C49.41 47.24 49.23 50.89 49.23 55.79V102.79C49.23 107.21 49.45 110.47 49.89 112.57C50.33 114.61 51.13 115.95 52.29 116.59C53.51 117.23 55.31 117.55 57.69 117.55C60.35 117.55 62.16 117.12 63.12 116.26C64.14 115.4 64.8 113.85 65.1 111.61C65.4 109.31 65.55 105.88 65.55 101.32V92.92H57.27V85.54H79.05V123.4H71.13L69.87 115.66C68.85 118.34 67.38 120.35 65.46 121.69C63.54 123.03 61.11 123.7 58.17 123.7C54.15 123.7 50.87 122.71 48.33 120.73C45.79 118.69 43.93 115.89 42.75 112.33C41.57 108.77 40.98 104.77 40.98 100.33V57.05C40.98 51.49 41.44 46.75 42.36 42.83C43.34 38.85 45.16 35.82 47.82 33.74C50.48 31.66 54.34 30.62 59.4 30.62C64.4 30.62 68.16 31.53 70.68 33.35C73.2 35.11 74.89 37.59 75.75 40.79C76.67 43.99 77.13 47.78 77.13 52.16V57.05H66Z" fill="#F4F1E8"/>
  <path d="M147.99 31.52H163.47C168.81 31.52 172.98 32.16 175.98 33.44C178.98 34.66 181.08 36.61 182.28 39.29C183.54 41.91 184.17 45.44 184.17 49.88C184.17 53.76 183.69 56.92 182.73 59.36C181.77 61.8 179.85 63.71 176.97 65.09C179.37 65.57 181.08 66.83 182.1 68.87C183.18 70.91 183.72 73.63 183.72 77.03L183.45 122.8H175.44V78.38C175.44 74.72 174.72 72.43 173.28 71.51C171.9 70.53 169.32 70.04 165.54 70.04H156.36V122.8H147.99V31.52ZM165.27 64.28C168.93 64.28 171.43 63.37 172.77 61.55C174.11 59.67 174.78 56.79 174.78 52.91C174.78 49.31 174.48 46.56 173.88 44.66C173.34 42.76 172.23 41.45 170.55 40.73C168.87 39.95 166.35 39.56 162.99 39.56H156.36V64.28H165.27Z" fill="#F4F1E8"/>
  <path d="M270.33 31.52H278.25L293.73 122.8H285.72L282.03 96.61H266.1L262.23 122.8H254.13L270.33 31.52ZM281.04 90.31L274.2 46.01L267 90.31H281.04Z" fill="#F4F1E8"/>
  <path d="M357.57 31.52H373.05C378.39 31.52 382.56 32.16 385.56 33.44C388.56 34.66 390.66 36.61 391.86 39.29C393.12 41.91 393.75 45.44 393.75 49.88C393.75 53.76 393.27 56.92 392.31 59.36C391.35 61.8 389.43 63.71 386.55 65.09C388.95 65.57 390.66 66.83 391.68 68.87C392.76 70.91 393.3 73.63 393.3 77.03L393.03 122.8H385.02V78.38C385.02 74.72 384.3 72.43 382.86 71.51C381.48 70.53 378.9 70.04 375.12 70.04H365.94V122.8H357.57V31.52ZM374.85 64.28C378.51 64.28 381.01 63.37 382.35 61.55C383.69 59.67 384.36 56.79 384.36 52.91C384.36 49.31 384.06 46.56 383.46 44.66C382.92 42.76 381.81 41.45 380.13 40.73C378.45 39.95 375.93 39.56 372.57 39.56H365.94V64.28H374.85Z" fill="#F4F1E8"/>
  <path d="M458.7 31.52H466.98V122.8H458.7V31.52Z" fill="#F4F1E8"/>
  <path d="M531 39.38H518.94V31.52H551.34V39.38H539.37V122.8H531V39.38Z" fill="#F4F1E8"/>
  <path d="M609.21 39.38H597.15V31.52H629.55V39.38H617.58V122.8H609.21V39.38Z" fill="#F4F1E8"/>
</svg>
