<svg width="256" height="256" viewBox="0 0 256 256" fill="none" xmlns="http://www.w3.org/2000/svg">
  <rect width="256" height="256" rx="36" fill="#050505"/>
  <rect x="24" y="24" width="208" height="208" stroke="#F4F1E8" stroke-width="8"/>
  <path d="M142.9 164.45V151.16H127.17V134.84H166.45V200H151.4L148.97 186.67C147 191.22 144.16 194.59 140.44 196.78C136.72 198.97 132.03 200.06 126.37 200.06C118.66 200.06 112.37 198.14 107.48 194.3C102.59 190.36 99.02 184.98 96.76 178.15C94.49 171.31 93.36 163.6 93.36 155V72.16C93.36 61.48 94.24 52.34 96.02 44.75C97.91 37.05 101.42 31.17 106.56 27.11C111.71 23.05 119.16 21.02 128.9 21.02C138.53 21.02 145.75 22.8 150.58 26.36C155.43 29.81 158.66 34.66 160.28 40.91C162.05 47.16 162.95 54.56 162.95 63.12V72.16H141.72V61.37C141.72 54.74 141.42 49.89 140.82 46.82C140.22 43.63 138.89 41.47 136.87 40.33C134.96 39.18 131.66 38.62 126.98 38.62C122.08 38.62 118.57 39.25 116.43 40.53C114.3 41.69 112.91 44.24 112.28 48.13C111.66 51.91 111.36 57.71 111.36 65.49V155.97C111.36 162.91 111.75 168.02 112.55 171.33C113.36 174.52 114.81 176.6 116.88 177.55C119.1 178.5 122.34 178.98 126.64 178.98C131.46 178.98 134.73 178.35 136.44 177.14C138.28 175.87 139.47 173.58 140.01 170.31C140.6 166.89 140.9 161.61 140.9 154.48V164.45H142.9Z" fill="#F4F1E8"/>
</svg>
